<svg viewBox="0 0 200 70" xmlns="http://www.w3.org/2000/svg">
  <defs></defs>
  <g transform="matrix(0.817955, 0, 0, 0.817955, -25.808626, -23.062597)">
    <title>logo</title>
    <g>
      <title>name</title>
      <path d="M 87.026 64.035 C 83.839 64.035 81.095 63.361 78.795 62.015 C 76.494 60.666 74.731 58.741 73.505 56.239 C 72.279 53.737 71.665 50.786 71.665 47.385 C 71.665 43.985 72.301 41.041 73.573 38.555 C 74.845 36.069 76.646 34.145 78.977 32.783 C 81.308 31.418 84.053 30.736 87.213 30.736 C 90.126 30.736 92.664 31.41 94.825 32.759 C 96.986 34.106 98.649 35.917 99.815 38.194 L 93.377 40.651 C 92.703 39.333 91.783 38.395 90.618 37.836 C 89.452 37.274 88.24 36.993 86.981 36.993 C 85.572 36.993 84.285 37.401 83.12 38.218 C 81.954 39.036 81.033 40.224 80.357 41.78 C 79.683 43.335 79.346 45.204 79.346 47.385 C 79.346 50.754 80.09 53.329 81.577 55.11 C 83.064 56.891 84.897 57.781 87.076 57.781 C 88.241 57.781 89.445 57.524 90.686 57.01 C 91.928 56.496 92.9 55.55 93.605 54.171 L 100.001 56.624 C 98.775 58.904 97.034 60.708 94.779 62.039 C 92.524 63.369 89.94 64.035 87.026 64.035 Z M 110.851 63.458 C 108.978 63.458 107.49 63.29 106.385 62.953 C 105.283 62.617 104.494 61.959 104.018 60.981 C 103.541 60.001 103.303 58.58 103.303 56.72 L 103.303 31.312 L 110.296 31.312 L 110.296 54.796 C 110.296 55.919 110.511 56.649 110.942 56.986 C 111.37 57.323 112.167 57.491 113.332 57.491 L 115.312 57.491 L 115.312 63.458 L 110.851 63.458 Z M 125.657 64.035 C 123.632 64.035 122.045 63.642 120.895 62.858 C 119.747 62.071 118.935 60.923 118.459 59.415 C 117.983 57.907 117.745 56.078 117.745 53.929 L 117.745 39.589 L 124.737 39.589 L 124.737 52.919 C 124.737 55.1 125.051 56.553 125.68 57.276 C 126.308 57.997 127.19 58.358 128.325 58.358 C 129.705 58.358 130.71 57.877 131.338 56.914 C 131.967 55.952 132.281 54.365 132.281 52.152 L 132.281 39.589 L 139.319 39.589 L 139.319 63.458 L 133.246 63.458 L 132.281 60.091 C 131.607 61.278 130.772 62.232 129.776 62.953 C 128.778 63.674 127.405 64.035 125.657 64.035 Z M 157.914 64.035 C 156.685 64.035 155.405 63.73 154.072 63.12 C 152.737 62.511 151.702 61.549 150.967 60.234 L 150.093 63.458 L 143.974 63.458 L 143.974 31.312 L 150.967 31.312 L 150.967 42.861 C 151.702 41.546 152.737 40.56 154.072 39.903 C 155.405 39.246 156.685 38.917 157.914 38.917 C 159.875 38.917 161.614 39.414 163.132 40.408 C 164.652 41.402 165.84 42.821 166.697 44.666 C 167.555 46.511 167.985 48.733 167.985 51.333 C 167.985 53.93 167.555 56.183 166.697 58.091 C 165.84 60.002 164.652 61.47 163.132 62.496 C 161.614 63.522 159.875 64.035 157.914 64.035 Z M 155.706 58.358 C 157.054 58.358 158.227 57.74 159.225 56.505 C 160.221 55.27 160.719 53.546 160.719 51.333 C 160.719 49.152 160.221 47.483 159.225 46.328 C 158.227 45.172 157.054 44.594 155.706 44.594 C 154.325 44.594 153.136 45.132 152.138 46.208 C 151.142 47.282 150.644 49.038 150.644 51.476 C 150.644 53.946 151.142 55.711 152.138 56.771 C 153.136 57.829 154.325 58.358 155.706 58.358 Z M 182.696 64.035 C 180.244 64.035 178.075 63.53 176.19 62.52 C 174.302 61.51 172.83 60.059 171.774 58.167 C 170.715 56.272 170.185 54.01 170.185 51.381 C 170.185 48.847 170.745 46.65 171.865 44.789 C 172.985 42.929 174.472 41.484 176.327 40.456 C 178.181 39.43 180.213 38.917 182.422 38.917 C 184.936 38.917 187.089 39.535 188.883 40.77 C 190.677 42.005 192.033 43.705 192.953 45.87 C 193.875 48.036 194.259 50.53 194.105 53.352 L 177.224 53.352 C 177.345 55.022 177.935 56.273 178.994 57.105 C 180.051 57.94 181.224 58.358 182.514 58.358 C 183.585 58.358 184.513 58.189 185.295 57.853 C 186.078 57.516 186.684 57.091 187.112 56.577 L 192.679 58.696 C 191.484 60.524 189.989 61.871 188.195 62.735 C 186.401 63.601 184.568 64.035 182.696 64.035 Z M 177.224 49.023 L 187.617 49.023 C 187.587 47.483 187.082 46.32 186.101 45.533 C 185.121 44.748 183.955 44.356 182.605 44.356 C 181.287 44.356 180.114 44.724 179.086 45.461 C 178.06 46.198 177.439 47.385 177.224 49.023 Z" style="fill: rgb(26, 85, 51); fill-rule: evenodd;">
        <title>Clube</title>
      </path>
      <path d="M 208.032 43.305 C 208.012 43.69 207.998 43.985 207.988 44.19 C 207.979 44.392 207.969 44.575 207.959 44.739 C 207.95 44.905 207.94 45.079 207.931 45.262 C 207.921 45.445 207.916 45.707 207.916 46.046 C 207.916 46.383 207.916 46.832 207.916 47.393 C 207.916 47.954 207.926 48.689 207.945 49.597 C 207.904 49.423 207.691 49.269 207.306 49.134 C 206.918 48.999 206.444 48.907 205.883 48.856 C 205.324 48.808 204.73 48.808 204.102 48.856 C 203.474 48.907 202.898 49.028 202.375 49.221 C 201.949 49.375 201.587 49.641 201.288 50.019 C 200.987 50.395 200.745 50.849 200.562 51.381 C 200.379 51.913 200.244 52.498 200.158 53.136 C 200.071 53.774 200.028 54.432 200.028 55.108 C 200.047 56.074 200.11 57.031 200.216 57.98 C 200.322 58.926 200.533 59.781 200.851 60.544 C 201.172 61.307 201.651 61.936 202.289 62.43 C 202.927 62.923 203.797 63.209 204.9 63.286 C 205.44 63.363 205.951 63.319 206.435 63.156 C 206.919 62.992 207.306 62.62 207.595 62.039 C 207.652 61.921 207.705 61.888 207.754 61.938 C 207.802 61.986 207.845 62.059 207.884 62.155 C 207.884 62.367 207.89 62.531 207.902 62.646 C 207.911 62.762 207.916 62.917 207.916 63.112 C 207.916 63.209 207.926 63.276 207.945 63.314 C 208.523 63.392 209.171 63.416 209.888 63.387 C 210.603 63.358 211.26 63.343 211.857 63.343 C 211.936 60.56 211.927 57.592 211.828 54.44 C 211.731 51.288 211.683 48.098 211.683 44.869 L 211.683 42.958 C 211.375 42.898 211.008 42.863 210.582 42.853 C 210.158 42.844 209.757 42.844 209.379 42.853 C 209.001 42.863 208.682 42.883 208.422 42.915 C 208.162 42.943 208.032 42.968 208.032 42.987 L 208.032 43.305 Z M 203.535 54.238 C 203.631 53.561 203.917 53.048 204.391 52.699 C 204.865 52.352 205.499 52.179 206.291 52.179 C 206.698 52.179 207.022 52.213 207.262 52.28 C 207.503 52.348 207.681 52.497 207.797 52.728 C 207.915 52.962 207.988 53.295 208.017 53.729 C 208.046 54.164 208.061 54.759 208.061 55.513 C 208.061 56.132 208.046 56.697 208.017 57.21 C 207.988 57.723 207.9 58.163 207.754 58.529 C 207.609 58.897 207.397 59.187 207.118 59.399 C 206.836 59.611 206.455 59.717 205.973 59.717 C 205.566 59.717 205.198 59.611 204.868 59.399 C 204.54 59.187 204.261 58.902 204.03 58.543 C 203.796 58.187 203.622 57.781 203.506 57.326 C 203.39 56.871 203.333 56.403 203.333 55.921 C 203.333 55.649 203.342 55.368 203.362 55.079 C 203.381 54.788 203.439 54.507 203.535 54.238 Z M 214.147 50.149 C 214.089 50.361 214.002 50.646 213.887 51.005 C 213.771 51.362 213.704 51.646 213.684 51.858 C 213.627 52.226 213.588 52.58 213.569 52.919 C 213.549 53.257 213.54 53.6 213.54 53.949 C 213.598 54.587 213.612 55.292 213.583 56.065 C 213.554 56.838 213.559 57.606 213.598 58.37 C 213.636 59.133 213.752 59.863 213.944 60.559 C 214.139 61.254 214.497 61.835 215.017 62.3 C 215.694 62.976 216.526 63.401 217.513 63.575 C 218.055 63.575 218.654 63.599 219.312 63.647 C 219.969 63.695 220.607 63.695 221.226 63.647 C 221.842 63.599 222.417 63.478 222.949 63.286 C 223.481 63.093 223.912 62.764 224.242 62.3 C 224.434 62.107 224.584 61.749 224.69 61.227 C 224.796 60.704 224.882 60.114 224.95 59.457 C 225.017 58.8 225.065 58.113 225.094 57.398 C 225.123 56.683 225.147 56.045 225.166 55.484 C 225.147 54.846 225.128 54.222 225.109 53.613 C 225.089 53.004 225.041 52.444 224.964 51.933 C 224.887 51.421 224.772 50.97 224.617 50.583 C 224.463 50.197 224.25 49.917 223.978 49.741 C 223.574 49.356 223.091 49.061 222.53 48.856 C 221.969 48.654 221.379 48.533 220.76 48.495 C 220.353 48.456 219.971 48.452 219.615 48.48 C 219.256 48.509 218.884 48.505 218.499 48.466 C 218.034 48.466 217.574 48.495 217.119 48.553 C 216.667 48.61 216.242 48.712 215.844 48.856 C 215.449 49.003 215.101 49.182 214.8 49.394 C 214.502 49.606 214.284 49.858 214.147 50.149 Z M 217.773 53.57 C 218.023 53.261 218.352 53.049 218.759 52.934 C 219.513 52.758 220.122 52.826 220.587 53.136 C 221.051 53.444 221.332 53.937 221.428 54.613 C 221.544 55.174 221.577 55.769 221.529 56.398 C 221.481 57.026 221.419 57.65 221.341 58.269 C 221.223 58.753 221.001 59.072 220.673 59.226 C 220.423 59.361 220.104 59.452 219.716 59.5 C 219.328 59.548 218.956 59.529 218.6 59.443 C 218.241 59.356 217.937 59.192 217.686 58.951 C 217.436 58.708 217.32 58.365 217.34 57.922 C 217.378 57.245 217.397 56.602 217.397 55.993 C 217.397 55.384 217.436 54.77 217.513 54.151 C 217.571 53.84 217.657 53.647 217.773 53.57 Z" style="fill: rgb(26, 85, 51); fill-rule: evenodd;">
        <title>do</title>
      </path>
      <path d="M 67.281 48.088 C 67.38 49.973 67.43 51.748 67.43 53.413 C 67.43 56.623 67.251 59.502 66.892 62.049 C 65.203 61.715 63.872 61.548 62.901 61.548 L 59.282 61.468 C 57.952 61.468 57.286 61.551 57.286 61.718 C 57.182 62.494 57.129 64.129 57.129 66.623 C 57.129 71.497 57.309 84.623 57.667 106.001 C 56.182 106.281 54.441 106.422 52.442 106.422 L 50.215 106.422 C 47.653 106.422 45.296 106.615 43.143 107.003 C 42.989 106.723 42.873 106.153 42.796 105.294 C 42.718 104.435 42.704 103.647 42.754 102.931 L 42.754 98.859 L 42.837 91.377 C 42.837 81.3 42.63 71.467 42.216 61.879 C 41.653 61.605 40.861 61.468 39.839 61.468 L 36.759 61.548 C 35.02 61.548 33.764 61.411 32.991 61.136 C 32.837 60.802 32.71 59.889 32.611 58.398 C 32.506 56.9 32.453 55.209 32.453 53.323 C 32.453 50.555 32.481 48.562 32.536 47.345 L 35.84 47.345 L 38.837 47.265 L 43.143 47.265 L 47.598 47.175 C 55.233 47.175 61.46 47.479 66.279 48.088 L 67.281 48.088 Z M 74.259 85.823 C 74.721 85.905 75.458 85.966 76.471 86.014 C 77.491 86.055 78.63 86.076 79.896 86.076 C 81.162 86.076 82.488 86.055 83.873 86.014 C 85.25 85.966 86.554 85.905 87.775 85.823 C 88.996 85.734 90.054 85.651 90.955 85.569 C 91.856 85.48 92.466 85.398 92.787 85.316 C 92.928 83.535 92.928 81.776 92.787 80.036 C 92.645 78.297 92.243 76.708 91.58 75.27 C 90.91 73.825 89.927 72.6 88.639 71.579 C 87.35 70.559 85.645 69.881 83.523 69.546 C 81.862 69.169 80.157 68.998 78.407 69.039 C 76.657 69.08 75.004 69.326 73.433 69.771 C 71.861 70.217 70.461 70.867 69.218 71.737 C 67.974 72.606 67.051 73.661 66.448 74.887 C 65.897 76.284 65.539 77.715 65.375 79.18 C 65.219 80.639 65.07 82.152 64.928 83.72 C 64.832 85.46 64.884 87.199 65.07 88.938 C 65.256 90.671 65.599 92.314 66.105 93.862 C 66.611 95.409 67.282 96.827 68.108 98.121 C 68.935 99.415 69.977 100.463 71.221 101.271 C 72.33 101.867 73.529 102.243 74.818 102.415 C 76.106 102.415 77.521 102.456 79.062 102.538 C 80.611 102.627 82.123 102.627 83.597 102.538 C 85.072 102.456 86.427 102.202 87.671 101.778 C 88.914 101.353 89.934 100.634 90.716 99.614 C 91.037 99.36 91.305 98.909 91.513 98.251 C 91.714 97.594 91.885 96.806 92.027 95.896 C 92.168 94.985 92.28 94.006 92.377 92.944 C 92.466 91.883 92.556 90.801 92.652 89.698 C 92.146 89.568 91.498 89.5 90.716 89.479 C 89.934 89.459 89.115 89.466 88.259 89.507 C 87.403 89.555 86.591 89.582 85.809 89.602 C 85.027 89.623 84.402 89.616 83.94 89.575 C 84.037 91.308 83.746 92.609 83.076 93.478 C 82.406 94.348 81.587 94.868 80.619 95.04 C 79.651 95.211 78.66 95.06 77.647 94.594 C 76.635 94.129 75.853 93.41 75.302 92.431 C 74.788 91.67 74.497 90.883 74.43 90.082 C 74.363 89.274 74.311 88.233 74.259 86.966 L 74.259 85.823 Z M 82.629 75.969 C 83.456 76.345 84.111 76.92 84.595 77.681 C 85.079 78.448 85.325 79.256 85.325 80.098 C 85.325 80.44 85.325 80.666 85.325 80.769 C 85.325 80.872 85.198 80.94 84.945 80.961 C 84.692 80.981 84.268 80.967 83.664 80.926 C 83.061 80.885 82.168 80.865 80.969 80.865 C 79.219 80.865 77.893 80.872 76.992 80.892 C 76.091 80.913 75.436 80.892 75.019 80.831 C 74.609 80.769 74.386 80.639 74.363 80.447 C 74.341 80.262 74.378 79.933 74.468 79.461 C 74.564 78.913 74.713 78.386 74.914 77.872 C 75.123 77.366 75.436 76.92 75.853 76.537 C 76.262 76.16 76.821 75.859 77.513 75.647 C 78.206 75.435 79.1 75.332 80.209 75.332 C 80.715 75.332 81.155 75.387 81.52 75.489 C 81.885 75.592 82.257 75.756 82.629 75.969 Z M 108.752 73.421 C 108.708 72.826 108.693 72.298 108.715 71.833 C 108.737 71.367 108.708 70.771 108.618 70.052 C 108.618 69.929 108.432 69.854 108.06 69.833 C 107.695 69.813 107.278 69.819 106.816 69.867 C 106.354 69.908 105.893 69.963 105.431 70.025 C 104.977 70.086 104.657 70.121 104.47 70.121 C 103.912 70.162 103.45 70.196 103.085 70.217 C 102.72 70.237 102.37 70.244 102.05 70.244 C 101.73 70.244 101.38 70.237 101.008 70.217 C 100.643 70.196 100.181 70.162 99.63 70.121 C 99.444 75.715 99.407 81.118 99.526 86.329 C 99.637 91.54 99.697 96.758 99.697 101.969 C 100.807 101.88 101.723 101.86 102.46 101.908 C 103.197 101.949 103.867 101.976 104.47 101.997 C 105.066 102.017 105.654 102.011 106.228 101.969 C 106.801 101.928 107.486 101.798 108.268 101.586 L 108.268 101.333 C 108.454 99.936 108.544 98.539 108.544 97.135 C 108.544 95.738 108.507 94.327 108.439 92.91 C 108.372 91.492 108.313 90.068 108.268 88.651 C 108.224 87.233 108.246 85.781 108.335 84.295 C 108.432 83.152 108.752 82.289 109.303 81.721 C 109.862 81.152 110.48 80.769 111.172 80.577 C 111.865 80.385 112.565 80.344 113.28 80.447 C 113.995 80.557 114.538 80.694 114.903 80.865 C 114.955 80.906 115 80.926 115.045 80.926 C 115.089 80.926 115.134 80.947 115.179 80.988 C 115.551 81.241 115.841 81.604 116.05 82.07 C 116.251 82.536 116.415 83.063 116.534 83.659 C 116.646 84.254 116.728 84.857 116.772 85.473 C 116.817 86.083 116.862 86.644 116.914 87.158 C 117.003 88.301 117.063 89.527 117.085 90.842 C 117.107 92.157 117.107 93.471 117.085 94.786 C 117.063 96.101 117.048 97.375 117.048 98.6 C 117.048 99.826 117.093 100.929 117.189 101.908 C 118.805 101.908 120.242 101.915 121.508 101.935 C 122.774 101.956 124.212 101.86 125.828 101.648 C 125.738 100.381 125.701 98.909 125.723 97.231 C 125.746 95.56 125.783 93.821 125.828 92.02 C 125.872 90.219 125.917 88.397 125.969 86.555 C 126.014 84.713 126.014 82.96 125.969 81.31 C 126.379 81.015 126.833 80.789 127.317 80.639 C 127.801 80.495 128.285 80.42 128.769 80.42 C 129.253 80.42 129.7 80.461 130.117 80.543 C 130.526 80.632 130.876 80.735 131.152 80.865 C 131.197 80.906 131.241 80.926 131.293 80.926 C 131.338 80.926 131.383 80.947 131.427 80.988 C 131.792 81.241 132.083 81.604 132.291 82.07 C 132.5 82.536 132.664 83.063 132.775 83.659 C 132.887 84.254 132.969 84.857 133.021 85.473 C 133.066 86.083 133.11 86.644 133.155 87.158 C 133.252 88.301 133.304 89.527 133.326 90.842 C 133.349 92.157 133.349 93.471 133.326 94.786 C 133.304 96.101 133.297 97.375 133.297 98.6 C 133.297 99.826 133.341 100.929 133.431 101.908 C 135.047 101.908 136.484 101.915 137.757 101.935 C 139.023 101.956 140.46 101.86 142.076 101.648 C 141.979 100.21 141.957 98.539 142.009 96.628 C 142.054 94.718 142.099 92.739 142.143 90.684 C 142.188 88.63 142.225 86.596 142.247 84.583 C 142.27 82.57 142.247 80.714 142.18 79.016 C 142.113 77.325 141.95 75.873 141.696 74.661 C 141.443 73.456 141.086 72.661 140.624 72.278 C 139.656 71.518 138.576 70.984 137.377 70.689 C 136.178 70.395 134.942 70.265 133.676 70.312 C 132.41 70.354 131.174 70.566 129.975 70.942 C 128.776 71.326 127.697 71.833 126.729 72.469 C 126.498 72.641 126.215 72.798 125.895 72.949 C 125.574 73.093 125.299 73.23 125.068 73.36 C 124.837 72.853 124.606 72.49 124.375 72.278 C 123.407 71.518 122.328 70.984 121.129 70.689 C 119.93 70.395 118.701 70.265 117.428 70.312 C 116.162 70.354 114.933 70.566 113.734 70.942 C 112.535 71.326 111.448 71.833 110.48 72.469 C 110.249 72.641 109.966 72.805 109.616 72.976 C 109.274 73.147 108.983 73.298 108.752 73.421 Z M 159.01 111.714 C 159.055 110.871 159.092 110.221 159.114 109.776 C 159.137 109.331 159.159 108.934 159.181 108.571 C 159.204 108.208 159.226 107.831 159.248 107.427 C 159.271 107.023 159.286 106.455 159.286 105.708 C 159.286 104.969 159.286 103.983 159.286 102.75 C 159.286 101.524 159.204 102.182 159.159 100.189 C 159.248 100.566 159.755 100.908 160.678 101.203 C 161.601 101.497 162.733 101.702 164.066 101.812 C 165.399 101.915 166.822 101.915 168.318 101.812 C 169.815 101.702 171.185 101.435 172.429 101.018 C 173.442 100.675 174.306 100.093 175.02 99.265 C 175.735 98.436 176.309 97.443 176.748 96.279 C 177.187 95.115 177.515 93.834 177.716 92.431 C 177.925 91.034 178.029 89.596 178.029 88.11 C 177.939 85.994 177.776 83.891 177.545 81.817 C 177.314 79.742 176.822 77.865 176.055 76.188 C 175.296 74.517 174.157 73.141 172.637 72.059 C 171.118 70.977 169.041 70.354 166.412 70.182 C 165.124 70.011 163.902 70.107 162.748 70.47 C 161.594 70.833 160.678 71.648 159.986 72.915 C 159.844 73.168 159.717 73.243 159.606 73.141 C 159.494 73.031 159.39 72.873 159.293 72.661 C 159.293 72.196 159.286 71.833 159.263 71.579 C 159.241 71.326 159.226 70.984 159.226 70.566 C 159.226 70.354 159.204 70.203 159.159 70.121 C 157.774 69.95 156.232 69.895 154.527 69.956 C 152.822 70.018 151.251 70.052 149.821 70.052 C 149.731 73.106 149.694 76.277 149.717 79.557 C 149.739 82.844 149.791 86.192 149.858 89.602 C 149.925 93.019 150.007 96.484 150.096 99.997 C 150.193 103.517 150.297 104.77 150.297 108.283 L 150.297 112.481 C 151.035 112.611 151.913 112.679 152.926 112.7 C 153.939 112.72 154.892 112.72 155.793 112.7 C 156.694 112.679 157.454 112.638 158.072 112.577 C 158.697 112.515 159.01 112.46 159.01 112.419 L 159.01 111.714 Z M 169.666 90.02 C 169.435 91.499 168.75 92.622 167.626 93.389 C 166.494 94.149 164.982 94.533 163.098 94.533 C 162.13 94.533 161.356 94.458 160.782 94.307 C 160.209 94.163 159.777 93.834 159.501 93.321 C 159.226 92.814 159.047 92.081 158.98 91.13 C 158.913 90.178 158.876 88.87 158.876 87.219 C 158.876 85.905 158.913 84.679 158.98 83.535 C 159.047 82.392 159.256 81.413 159.606 80.611 C 159.956 79.803 160.447 79.167 161.095 78.701 C 161.743 78.235 162.659 78.002 163.858 78.002 C 164.826 78.002 165.705 78.235 166.486 78.701 C 167.268 79.167 167.939 79.79 168.49 80.577 C 169.041 81.365 169.458 82.255 169.733 83.248 C 170.009 84.241 170.15 85.268 170.15 86.329 C 170.15 86.925 170.128 87.534 170.076 88.171 C 170.031 88.808 169.897 89.424 169.666 90.02 Z M 193.242 85.823 C 193.704 85.905 194.441 85.966 195.454 86.014 C 196.474 86.055 197.614 86.076 198.88 86.076 C 200.146 86.076 201.471 86.055 202.856 86.014 C 204.234 85.966 205.537 85.905 206.758 85.823 C 207.979 85.734 209.037 85.651 209.938 85.569 C 210.839 85.48 211.45 85.398 211.77 85.316 C 211.911 83.535 211.911 81.776 211.77 80.036 C 211.636 78.297 211.234 76.708 210.563 75.27 C 209.893 73.825 208.91 72.6 207.622 71.579 C 206.334 70.559 204.628 69.881 202.506 69.546 C 200.846 69.169 199.14 68.998 197.39 69.039 C 195.64 69.08 193.987 69.326 192.416 69.771 C 190.845 70.217 189.445 70.867 188.201 71.737 C 186.957 72.606 186.034 73.661 185.431 74.887 C 184.88 76.284 184.522 77.715 184.359 79.18 C 184.202 80.639 184.053 82.152 183.912 83.72 C 183.822 85.46 183.867 87.199 184.053 88.938 C 184.239 90.671 184.582 92.314 185.088 93.862 C 185.595 95.409 186.265 96.827 187.091 98.121 C 187.918 99.415 188.961 100.463 190.204 101.271 C 191.314 101.867 192.513 102.243 193.801 102.415 C 195.089 102.415 196.512 102.456 198.053 102.538 C 199.594 102.627 201.106 102.627 202.581 102.538 C 204.055 102.456 205.41 102.202 206.654 101.778 C 207.898 101.353 208.918 100.634 209.7 99.614 C 210.02 99.36 210.288 98.909 210.496 98.251 C 210.697 97.594 210.869 96.806 211.01 95.896 C 211.152 94.985 211.263 94.006 211.36 92.944 C 211.45 91.883 211.539 90.801 211.636 89.698 C 211.129 89.568 210.482 89.5 209.7 89.479 C 208.918 89.459 208.099 89.466 207.242 89.507 C 206.393 89.555 205.574 89.582 204.792 89.602 C 204.01 89.623 203.385 89.616 202.923 89.575 C 203.02 91.308 202.73 92.609 202.059 93.478 C 201.389 94.348 200.57 94.868 199.609 95.04 C 198.641 95.211 197.651 95.06 196.631 94.594 C 195.618 94.129 194.836 93.41 194.285 92.431 C 193.779 91.67 193.488 90.883 193.421 90.082 C 193.354 89.274 193.295 88.233 193.242 86.966 L 193.242 85.823 Z M 201.613 75.969 C 202.439 76.345 203.094 76.92 203.578 77.681 C 204.062 78.448 204.308 79.256 204.308 80.098 C 204.308 80.44 204.308 80.666 204.308 80.769 C 204.308 80.872 204.182 80.94 203.928 80.961 C 203.675 80.981 203.251 80.967 202.648 80.926 C 202.044 80.885 201.151 80.865 199.952 80.865 C 198.202 80.865 196.876 80.872 195.975 80.892 C 195.074 80.913 194.419 80.892 194.009 80.831 C 193.592 80.769 193.369 80.639 193.347 80.447 C 193.324 80.262 193.362 79.933 193.451 79.461 C 193.548 78.913 193.697 78.386 193.905 77.872 C 194.106 77.366 194.419 76.92 194.836 76.537 C 195.246 76.16 195.804 75.859 196.497 75.647 C 197.189 75.435 198.083 75.332 199.192 75.332 C 199.699 75.332 200.138 75.387 200.503 75.489 C 200.868 75.592 201.24 75.756 201.613 75.969 Z M 228.086 72.216 C 228.086 71.922 228.071 71.709 228.048 71.579 C 228.026 71.449 228.011 71.333 228.011 71.23 C 228.011 71.127 228.011 70.99 228.011 70.819 C 228.011 70.648 228.011 70.395 228.011 70.052 C 228.011 69.97 227.817 69.915 227.423 69.895 C 227.036 69.874 226.574 69.888 226.045 69.929 C 225.516 69.97 225.01 70.011 224.526 70.052 C 224.042 70.1 223.707 70.121 223.521 70.121 C 222.97 70.162 222.508 70.196 222.136 70.217 C 221.771 70.237 221.421 70.244 221.101 70.244 C 220.78 70.244 220.43 70.237 220.065 70.217 C 219.693 70.196 219.231 70.162 218.68 70.121 C 218.494 75.715 218.464 81.118 218.576 86.329 C 218.688 91.54 218.747 96.758 218.747 101.969 C 219.857 101.88 220.81 101.86 221.622 101.908 C 222.426 101.949 223.171 101.976 223.863 101.997 C 224.556 102.017 225.226 102.011 225.874 101.969 C 226.522 101.928 227.229 101.798 228.011 101.586 L 228.011 101.333 C 228.011 99.764 228.004 98.292 227.981 96.916 C 227.959 95.539 227.944 94.184 227.944 92.848 C 227.944 91.513 227.922 90.185 227.877 88.87 C 227.832 87.562 227.788 86.165 227.736 84.679 C 227.691 83.494 227.877 82.577 228.287 81.94 C 228.704 81.303 229.292 80.837 230.051 80.543 C 230.811 80.248 231.712 80.098 232.747 80.098 C 233.782 80.098 234.929 80.159 236.173 80.29 C 236.217 80.29 236.53 80.331 237.103 80.42 C 237.677 80.502 238.243 80.605 238.801 80.735 C 239.032 80.824 239.27 80.899 239.524 80.961 C 239.777 81.022 240.023 81.091 240.253 81.18 L 240.872 81.372 C 240.827 80.735 240.804 80.057 240.804 79.338 C 240.804 78.619 240.804 77.824 240.804 76.955 C 240.804 76.085 240.819 75.099 240.842 73.997 C 240.864 72.894 240.872 71.627 240.872 70.182 C 240.872 70.141 240.536 70.107 239.874 70.086 C 239.203 70.066 238.384 70.073 237.416 70.121 C 236.448 70.162 235.413 70.258 234.304 70.401 C 233.194 70.552 232.204 70.758 231.332 71.011 C 230.684 71.223 230.029 71.456 229.359 71.709 C 228.696 71.963 228.272 72.127 228.086 72.216 Z M 245.348 73.625 C 245.203 74.113 244.984 74.766 244.693 75.584 C 244.407 76.407 244.238 77.062 244.186 77.55 C 244.04 78.397 243.944 79.208 243.897 79.983 C 243.85 80.763 243.827 81.553 243.827 82.352 C 243.972 83.816 244.009 85.435 243.936 87.21 C 243.863 88.99 243.873 90.758 243.967 92.514 C 244.066 94.265 244.357 95.94 244.841 97.538 C 245.325 99.141 246.217 100.473 247.518 101.535 C 249.209 103.09 251.288 104.069 253.754 104.471 C 255.107 104.471 256.603 104.526 258.242 104.636 C 259.886 104.746 261.481 104.746 263.026 104.636 C 264.571 104.526 266.007 104.248 267.334 103.803 C 268.666 103.358 269.743 102.602 270.565 101.535 C 271.044 101.095 271.416 100.275 271.681 99.074 C 271.947 97.873 272.165 96.519 272.337 95.012 C 272.503 93.5 272.623 91.923 272.696 90.282 C 272.769 88.636 272.831 87.17 272.883 85.883 C 272.831 84.414 272.782 82.981 272.735 81.584 C 272.688 80.187 272.568 78.9 272.376 77.723 C 272.178 76.546 271.887 75.512 271.502 74.622 C 271.117 73.732 270.586 73.089 269.91 72.692 C 268.895 71.802 267.688 71.122 266.288 70.653 C 264.889 70.189 263.414 69.912 261.863 69.821 C 260.854 69.735 259.901 69.725 259.007 69.792 C 258.112 69.859 257.18 69.847 256.212 69.756 C 255.057 69.756 253.91 69.823 252.771 69.957 C 251.636 70.091 250.575 70.323 249.586 70.653 C 248.598 70.988 247.729 71.4 246.98 71.888 C 246.23 72.376 245.687 72.955 245.348 73.625 Z M 254.402 81.483 C 255.031 80.775 255.853 80.287 256.868 80.019 C 258.752 79.617 260.273 79.773 261.434 80.486 C 262.594 81.194 263.294 82.325 263.533 83.88 C 263.825 85.172 263.908 86.538 263.783 87.978 C 263.663 89.423 263.507 90.856 263.315 92.277 C 263.023 93.387 262.469 94.119 261.652 94.473 C 261.023 94.784 260.224 94.997 259.256 95.112 C 258.294 95.222 257.365 95.177 256.47 94.976 C 255.575 94.775 254.813 94.397 254.183 93.842 C 253.559 93.287 253.27 92.5 253.317 91.481 C 253.416 89.926 253.465 88.447 253.465 87.045 C 253.465 85.648 253.562 84.239 253.754 82.818 C 253.9 82.105 254.116 81.66 254.402 81.483 Z" style="fill: rgb(183, 36, 36); fill-rule: evenodd;">
        <title>Tempero</title>
      </path>
    </g>
    <g transform="matrix(1.069776, 0, 0, 0.994767, -56.947975, -46.525925)">
      <title>pan</title>
      <path d="M 298.661 105.114 C 296.7 106.585 293.784 107.656 291.981 107.93 C 291.393 108.02 291.062 108.678 291.218 109.255 C 291.372 109.831 291.954 110.117 292.542 110.017 C 294.551 109.674 297.68 108.251 299.773 106.964 C 300.282 106.652 300.45 105.994 300.143 105.483 C 299.835 104.972 299.139 104.756 298.661 105.114 Z M 309.048 94.236 L 309.814 90.934 C 309.821 90.905 309.827 90.874 309.831 90.844 C 309.854 90.686 310.314 86.962 304.475 85.568 C 302.252 85.038 300.522 85.204 299.333 86.065 C 298.101 86.956 297.961 88.233 297.949 88.374 C 297.947 88.407 297.945 88.439 297.946 88.471 L 297.973 91.574 C 296.013 91.295 288.702 91.065 288.576 91.065 C 288.155 91.065 282.968 91.08 277.917 91.722 C 276.982 90.984 275.626 90.263 273.646 89.79 C 271.642 89.311 269.993 89.502 268.746 90.357 C 267.157 91.447 266.884 93.163 266.858 93.355 C 266.838 93.504 266.849 93.659 266.895 93.803 L 268.207 98.127 C 269.349 107.046 278.046 114.005 288.576 114.005 C 299.88 114.005 309.076 105.985 309.076 96.128 C 309.076 96.117 309.07 96.109 309.07 96.096 C 309.07 96.079 309.076 96.064 309.076 96.046 C 309.076 95.611 308.914 95.215 308.633 94.851 C 308.833 94.706 308.989 94.497 309.048 94.236 Z M 300.065 88.528 C 300.086 88.435 300.19 88.062 300.577 87.781 C 301.222 87.313 302.433 87.256 303.982 87.629 C 307.666 88.507 307.741 90.304 307.736 90.525 L 307.012 93.639 C 305.315 92.791 302.765 92.219 300.091 91.838 L 300.065 88.528 Z M 288.575 93.184 C 289.104 93.184 291.751 93.246 292.54 93.265 C 301.19 93.625 306.26 95.116 306.926 96.047 C 306.163 97.113 299.638 98.911 288.575 98.911 C 285.284 98.911 282.405 98.749 279.95 98.498 C 279.95 98.498 279.943 94.61 279.931 94.544 C 279.923 94.5 279.847 94.142 279.574 93.632 C 282.107 93.36 285.119 93.184 288.575 93.184 Z M 277.229 93.936 C 277.628 94.378 277.784 94.742 277.832 94.881 L 277.832 98.246 C 273.328 97.625 270.691 96.699 270.225 96.046 C 270.669 95.424 273.095 94.555 277.229 93.936 Z M 269.944 92.107 C 270.677 91.603 271.756 91.517 273.153 91.851 C 273.673 91.975 274.129 92.116 274.541 92.268 C 272.322 92.716 270.385 93.337 269.224 94.186 L 269.002 93.454 C 269.091 93.147 269.339 92.52 269.944 92.107 Z M 288.576 111.89 C 280.189 111.89 273.102 107.046 270.903 100.455 C 270.961 100.296 270.584 98.668 270.584 98.668 C 272.442 99.478 275.112 100.011 277.833 100.361 L 277.833 101.664 C 277.833 102.249 278.307 102.723 278.892 102.723 C 279.477 102.723 279.951 102.249 279.951 101.664 L 279.951 100.6 C 284.276 101.018 288.212 101.028 288.576 101.028 C 289.235 101.028 301.494 100.993 306.733 98.593 C 305.346 106.116 297.733 111.89 288.576 111.89 Z" style="fill: rgb(101, 57, 37);">
        <title>pan</title>
      </path>
      <path d="M 293.671 85.337 C 293.153 85.605 292.947 86.245 293.215 86.765 C 293.403 87.13 293.774 87.339 294.158 87.339 C 294.322 87.339 294.487 87.3 294.643 87.22 C 295.904 86.57 296.635 84.973 296.704 82.721 C 296.784 80.156 295.94 77.007 294.176 75.956 C 293.674 75.654 293.024 75.82 292.724 76.323 C 292.424 76.826 292.588 77.474 293.091 77.774 C 293.855 78.231 294.659 80.347 294.586 82.657 C 294.54 84.208 294.092 85.121 293.671 85.337 Z" style="fill: rgb(148, 163, 144);">
        <title>smoke_green</title>
      </path>
      <path d="M 286.527 79.935 C 286.005 79.67 285.367 79.88 285.104 80.402 C 284.354 81.885 282.073 86.402 284.165 89.11 C 284.373 89.381 284.687 89.522 285.003 89.522 C 285.23 89.522 285.456 89.45 285.65 89.302 C 286.113 88.943 286.199 88.279 285.842 87.816 C 285.258 87.062 284.988 85.33 286.996 81.357 C 287.258 80.836 287.05 80.197 286.527 79.935 Z" style="fill: rgb(181, 163, 163);">
        <title>smoke_brown</title>
      </path>
      <path d="M 292.261 82.801 C 291.561 82.444 290.755 82.753 290.353 83.425 C 288.62 86.324 286.293 91.466 289.095 95.094 C 289.376 95.457 289.795 95.647 290.219 95.647 C 290.522 95.647 290.914 95.339 290.825 95.024 C 290.596 94.217 290.798 94.675 290.494 94.079 C 289.721 92.563 288.763 87.549 292.237 84.507 C 292.822 83.994 292.962 83.152 292.261 82.801 Z" style="fill: rgb(221, 176, 176); transform-box: fill-box; transform-origin: 50% 50%;">
        <title>smoke_red</title>
      </path>
    </g>
  </g>
</svg>