<svg viewBox="0 0 100 100" xmlns="http://www.w3.org/2000/svg">
    <defs></defs>
    <g transform="matrix(1.25, 0, 0, 1.25, -477.835968, -193.195007)" style="transform-origin: 477.836px 193.195px;">
      <title>social</title>
      <g>
        <title>name</title>
        <path d="M 498.334 231.322 C 497.088 231.322 496.016 231.059 495.117 230.533 C 494.217 230.005 493.528 229.253 493.049 228.275 C 492.57 227.297 492.329 226.144 492.329 224.815 C 492.329 223.486 492.578 222.334 493.075 221.363 C 493.572 220.391 494.277 219.638 495.187 219.107 C 496.099 218.574 497.171 218.307 498.408 218.307 C 499.546 218.307 500.537 218.57 501.383 219.097 C 502.226 219.624 502.877 220.331 503.333 221.221 L 500.816 222.182 C 500.552 221.667 500.193 221.301 499.738 221.083 C 499.282 220.862 498.808 220.753 498.317 220.753 C 497.765 220.753 497.262 220.912 496.807 221.231 C 496.35 221.551 495.991 222.016 495.727 222.624 C 495.463 223.231 495.331 223.961 495.331 224.815 C 495.331 226.132 495.622 227.138 496.204 227.835 C 496.784 228.53 497.501 228.878 498.353 228.878 C 498.808 228.878 499.279 228.778 499.764 228.576 C 500.249 228.376 500.63 228.006 500.906 227.467 L 503.405 228.425 C 502.926 229.317 502.244 230.021 501.364 230.543 C 500.483 231.061 499.472 231.322 498.334 231.322 Z M 507.646 231.096 C 506.914 231.096 506.333 231.031 505.9 230.899 C 505.47 230.768 505.162 230.511 504.976 230.128 C 504.788 229.746 504.696 229.19 504.696 228.464 L 504.696 218.531 L 507.429 218.531 L 507.429 227.711 C 507.429 228.15 507.513 228.436 507.682 228.567 C 507.849 228.698 508.161 228.765 508.616 228.765 L 509.39 228.765 L 509.39 231.096 L 507.646 231.096 Z M 513.433 231.322 C 512.641 231.322 512.022 231.169 511.571 230.861 C 511.123 230.555 510.806 230.106 510.62 229.517 C 510.433 228.927 510.34 228.212 510.34 227.373 L 510.34 221.767 L 513.073 221.767 L 513.073 226.978 C 513.073 227.829 513.197 228.398 513.442 228.681 C 513.688 228.963 514.032 229.103 514.476 229.103 C 515.016 229.103 515.408 228.916 515.653 228.539 C 515.9 228.164 516.023 227.543 516.023 226.678 L 516.023 221.767 L 518.772 221.767 L 518.772 231.096 L 516.399 231.096 L 516.023 229.78 C 515.759 230.245 515.433 230.617 515.043 230.899 C 514.653 231.181 514.117 231.322 513.433 231.322 Z M 526.042 231.322 C 525.561 231.322 525.061 231.203 524.54 230.965 C 524.018 230.727 523.614 230.35 523.327 229.836 L 522.985 231.096 L 520.592 231.096 L 520.592 218.531 L 523.327 218.531 L 523.327 223.046 C 523.614 222.532 524.018 222.147 524.54 221.89 C 525.061 221.634 525.561 221.505 526.042 221.505 C 526.808 221.505 527.488 221.699 528.081 222.088 C 528.676 222.476 529.139 223.031 529.474 223.753 C 529.809 224.474 529.979 225.34 529.979 226.357 C 529.979 227.373 529.809 228.253 529.474 228.998 C 529.139 229.746 528.676 230.319 528.081 230.721 C 527.488 231.122 526.808 231.322 526.042 231.322 Z M 525.179 229.103 C 525.706 229.103 526.164 228.862 526.554 228.38 C 526.944 227.897 527.138 227.222 527.138 226.357 C 527.138 225.505 526.944 224.853 526.554 224.401 C 526.164 223.949 525.706 223.724 525.179 223.724 C 524.639 223.724 524.174 223.934 523.783 224.355 C 523.396 224.774 523.2 225.46 523.2 226.413 C 523.2 227.379 523.396 228.069 523.783 228.483 C 524.174 228.897 524.639 229.103 525.179 229.103 Z M 535.728 231.322 C 534.77 231.322 533.921 231.125 533.186 230.73 C 532.447 230.336 531.871 229.768 531.459 229.028 C 531.044 228.288 530.838 227.404 530.838 226.376 C 530.838 225.386 531.057 224.526 531.496 223.799 C 531.932 223.073 532.514 222.508 533.24 222.107 C 533.964 221.705 534.757 221.505 535.621 221.505 C 536.604 221.505 537.446 221.747 538.147 222.229 C 538.849 222.712 539.378 223.376 539.737 224.222 C 540.098 225.069 540.248 226.044 540.187 227.147 L 533.589 227.147 C 533.636 227.799 533.868 228.289 534.281 228.614 C 534.694 228.94 535.153 229.103 535.657 229.103 C 536.075 229.103 536.439 229.038 536.744 228.905 C 537.05 228.774 537.287 228.607 537.454 228.407 L 539.63 229.236 C 539.163 229.949 538.579 230.477 537.877 230.815 C 537.176 231.152 536.46 231.322 535.728 231.322 Z M 533.589 225.455 L 537.652 225.455 C 537.64 224.853 537.443 224.398 537.06 224.091 C 536.676 223.784 536.221 223.63 535.693 223.63 C 535.178 223.63 534.719 223.774 534.318 224.063 C 533.915 224.35 533.673 224.815 533.589 225.455 Z" style="fill: rgb(26, 85, 51); fill-rule: evenodd;">
          <title>Clube</title>
        </path>
        <path d="M 546.632 223.22 C 546.623 223.37 546.617 223.486 546.614 223.566 C 546.61 223.644 546.607 223.716 546.603 223.78 C 546.599 223.846 546.596 223.914 546.591 223.984 C 546.588 224.057 546.585 224.158 546.585 224.29 C 546.585 224.423 546.585 224.599 546.585 224.817 C 546.585 225.037 546.59 225.324 546.598 225.679 C 546.582 225.611 546.498 225.55 546.347 225.499 C 546.196 225.445 546.011 225.409 545.791 225.389 C 545.572 225.37 545.341 225.37 545.094 225.389 C 544.85 225.409 544.625 225.456 544.421 225.532 C 544.253 225.592 544.112 225.696 543.995 225.843 C 543.877 225.991 543.783 226.169 543.712 226.376 C 543.64 226.585 543.586 226.813 543.553 227.063 C 543.52 227.312 543.502 227.569 543.502 227.834 C 543.51 228.21 543.534 228.585 543.577 228.955 C 543.617 229.325 543.7 229.659 543.825 229.958 C 543.95 230.256 544.138 230.501 544.386 230.696 C 544.635 230.888 544.976 231 545.408 231.029 C 545.619 231.059 545.819 231.044 546.007 230.978 C 546.196 230.915 546.347 230.768 546.46 230.543 C 546.483 230.495 546.503 230.483 546.522 230.504 C 546.542 230.522 546.558 230.55 546.573 230.587 C 546.573 230.671 546.576 230.734 546.58 230.78 C 546.584 230.824 546.585 230.885 546.585 230.961 C 546.585 231 546.59 231.026 546.598 231.04 C 546.824 231.071 547.077 231.08 547.356 231.069 C 547.637 231.058 547.893 231.052 548.127 231.052 C 548.157 229.965 548.154 228.804 548.114 227.573 C 548.077 226.34 548.058 225.092 548.058 223.83 L 548.058 223.084 C 547.938 223.06 547.794 223.047 547.628 223.044 C 547.461 223.04 547.305 223.04 547.157 223.044 C 547.01 223.047 546.886 223.054 546.784 223.067 C 546.682 223.078 546.632 223.088 546.632 223.096 L 546.632 223.22 Z M 544.874 227.493 C 544.911 227.228 545.023 227.028 545.207 226.891 C 545.393 226.756 545.641 226.688 545.951 226.688 C 546.11 226.688 546.237 226.701 546.33 226.728 C 546.424 226.755 546.494 226.813 546.54 226.903 C 546.585 226.995 546.614 227.125 546.626 227.295 C 546.636 227.464 546.642 227.697 546.642 227.991 C 546.642 228.233 546.636 228.454 546.626 228.655 C 546.614 228.855 546.579 229.027 546.522 229.17 C 546.466 229.314 546.383 229.427 546.274 229.51 C 546.163 229.593 546.014 229.635 545.827 229.635 C 545.667 229.635 545.524 229.593 545.396 229.51 C 545.266 229.427 545.157 229.317 545.068 229.176 C 544.976 229.036 544.907 228.878 544.863 228.699 C 544.817 228.523 544.794 228.339 544.794 228.151 C 544.794 228.045 544.799 227.935 544.806 227.822 C 544.813 227.708 544.837 227.599 544.874 227.493 Z M 549.022 225.895 C 548.999 225.978 548.964 226.089 548.92 226.23 C 548.874 226.369 548.849 226.48 548.84 226.562 C 548.819 226.706 548.803 226.846 548.796 226.978 C 548.788 227.109 548.783 227.244 548.783 227.38 C 548.807 227.63 548.812 227.905 548.801 228.207 C 548.79 228.51 548.791 228.81 548.807 229.108 C 548.822 229.406 548.867 229.691 548.943 229.964 C 549.018 230.235 549.159 230.462 549.362 230.644 C 549.627 230.909 549.951 231.074 550.337 231.142 C 550.548 231.142 550.783 231.152 551.041 231.171 C 551.297 231.189 551.547 231.189 551.789 231.171 C 552.03 231.152 552.254 231.105 552.463 231.029 C 552.67 230.954 552.839 230.826 552.968 230.644 C 553.042 230.569 553.1 230.429 553.143 230.225 C 553.184 230.02 553.217 229.79 553.244 229.532 C 553.271 229.277 553.29 229.008 553.3 228.728 C 553.311 228.449 553.322 228.2 553.329 227.979 C 553.322 227.73 553.314 227.487 553.306 227.249 C 553.298 227.01 553.279 226.792 553.249 226.592 C 553.219 226.393 553.175 226.216 553.114 226.065 C 553.054 225.914 552.97 225.804 552.864 225.736 C 552.706 225.586 552.517 225.47 552.299 225.389 C 552.079 225.309 551.849 225.263 551.607 225.247 C 551.447 225.233 551.298 225.232 551.16 225.243 C 551.019 225.254 550.873 225.253 550.722 225.237 C 550.541 225.237 550.361 225.247 550.184 225.271 C 550.006 225.294 549.84 225.333 549.684 225.389 C 549.531 225.446 549.395 225.517 549.277 225.599 C 549.16 225.682 549.075 225.781 549.022 225.895 Z M 550.44 227.233 C 550.536 227.11 550.665 227.028 550.824 226.983 C 551.118 226.915 551.356 226.941 551.539 227.063 C 551.72 227.183 551.83 227.375 551.868 227.64 C 551.913 227.859 551.925 228.091 551.907 228.337 C 551.888 228.583 551.864 228.827 551.833 229.069 C 551.788 229.258 551.701 229.382 551.572 229.443 C 551.474 229.495 551.35 229.531 551.198 229.55 C 551.046 229.568 550.901 229.561 550.762 229.528 C 550.622 229.494 550.503 229.43 550.404 229.336 C 550.306 229.24 550.262 229.107 550.269 228.933 C 550.284 228.668 550.292 228.417 550.292 228.179 C 550.292 227.941 550.306 227.7 550.337 227.46 C 550.36 227.338 550.393 227.263 550.44 227.233 Z" style="fill: rgb(26, 85, 51); fill-rule: evenodd;">
          <title>do</title>
        </path>
        <path d="M 493.147 239.654 C 493.293 239.68 493.525 239.699 493.844 239.715 C 494.165 239.727 494.524 239.734 494.922 239.734 C 495.321 239.734 495.739 239.727 496.175 239.715 C 496.608 239.699 497.019 239.68 497.404 239.654 C 497.788 239.626 498.121 239.6 498.405 239.574 C 498.689 239.546 498.881 239.521 498.982 239.495 C 499.026 238.934 499.026 238.38 498.982 237.832 C 498.937 237.284 498.811 236.784 498.602 236.331 C 498.391 235.876 498.081 235.49 497.676 235.169 C 497.27 234.848 496.733 234.634 496.065 234.529 C 495.542 234.41 495.005 234.356 494.453 234.369 C 493.902 234.382 493.382 234.459 492.887 234.599 C 492.392 234.74 491.951 234.945 491.56 235.219 C 491.168 235.492 490.877 235.824 490.687 236.211 C 490.514 236.65 490.401 237.101 490.35 237.562 C 490.3 238.022 490.253 238.498 490.209 238.992 C 490.179 239.54 490.195 240.088 490.253 240.635 C 490.312 241.181 490.42 241.698 490.579 242.186 C 490.739 242.673 490.95 243.12 491.21 243.527 C 491.471 243.935 491.799 244.265 492.191 244.519 C 492.54 244.707 492.917 244.825 493.323 244.879 C 493.729 244.879 494.174 244.892 494.66 244.918 C 495.148 244.946 495.624 244.946 496.088 244.918 C 496.552 244.892 496.979 244.812 497.371 244.679 C 497.762 244.545 498.083 244.319 498.33 243.997 C 498.431 243.917 498.515 243.775 498.581 243.568 C 498.644 243.361 498.698 243.113 498.743 242.827 C 498.787 242.54 498.822 242.231 498.853 241.897 C 498.881 241.563 498.909 241.222 498.939 240.875 C 498.78 240.834 498.576 240.812 498.33 240.806 C 498.083 240.799 497.826 240.802 497.556 240.815 C 497.286 240.83 497.031 240.838 496.784 240.844 C 496.538 240.851 496.341 240.849 496.196 240.836 C 496.226 241.382 496.135 241.791 495.924 242.065 C 495.713 242.339 495.455 242.503 495.15 242.557 C 494.845 242.611 494.533 242.563 494.214 242.416 C 493.895 242.27 493.649 242.044 493.476 241.735 C 493.314 241.496 493.222 241.248 493.201 240.996 C 493.18 240.741 493.164 240.413 493.147 240.014 L 493.147 239.654 Z M 495.783 236.551 C 496.043 236.67 496.25 236.851 496.402 237.09 C 496.555 237.332 496.632 237.586 496.632 237.852 C 496.632 237.959 496.632 238.03 496.632 238.063 C 496.632 238.095 496.592 238.117 496.512 238.123 C 496.433 238.13 496.299 238.125 496.109 238.112 C 495.919 238.099 495.638 238.093 495.26 238.093 C 494.709 238.093 494.292 238.095 494.008 238.102 C 493.724 238.108 493.518 238.102 493.387 238.082 C 493.257 238.063 493.187 238.022 493.18 237.961 C 493.173 237.903 493.185 237.8 493.213 237.651 C 493.243 237.478 493.29 237.312 493.353 237.151 C 493.419 236.991 493.518 236.851 493.649 236.73 C 493.778 236.611 493.954 236.517 494.172 236.45 C 494.39 236.383 494.672 236.351 495.021 236.351 C 495.18 236.351 495.319 236.368 495.434 236.4 C 495.549 236.433 495.666 236.484 495.783 236.551 Z M 504.009 235.749 C 503.996 235.561 503.991 235.395 503.998 235.249 C 504.005 235.102 503.996 234.914 503.967 234.688 C 503.967 234.649 503.909 234.626 503.792 234.619 C 503.677 234.613 503.545 234.615 503.4 234.63 C 503.254 234.643 503.109 234.66 502.964 234.679 C 502.821 234.699 502.72 234.71 502.661 234.71 C 502.485 234.723 502.34 234.733 502.225 234.74 C 502.11 234.746 502 234.748 501.899 234.748 C 501.798 234.748 501.688 234.746 501.571 234.74 C 501.456 234.733 501.31 234.723 501.137 234.71 C 501.078 236.471 501.067 238.173 501.104 239.814 C 501.139 241.455 501.158 243.098 501.158 244.739 C 501.508 244.711 501.796 244.705 502.028 244.72 C 502.26 244.733 502.471 244.741 502.661 244.748 C 502.849 244.754 503.034 244.752 503.215 244.739 C 503.395 244.726 503.611 244.685 503.857 244.618 L 503.857 244.539 C 503.916 244.099 503.944 243.659 503.944 243.217 C 503.944 242.777 503.932 242.332 503.911 241.886 C 503.89 241.44 503.871 240.991 503.857 240.545 C 503.843 240.098 503.85 239.641 503.878 239.173 C 503.909 238.813 504.009 238.542 504.183 238.363 C 504.359 238.183 504.554 238.063 504.772 238.002 C 504.99 237.942 505.21 237.929 505.435 237.961 C 505.661 237.996 505.832 238.039 505.947 238.093 C 505.963 238.106 505.977 238.112 505.991 238.112 C 506.005 238.112 506.019 238.119 506.033 238.132 C 506.151 238.211 506.242 238.326 506.308 238.473 C 506.371 238.619 506.423 238.785 506.46 238.973 C 506.495 239.16 506.521 239.35 506.535 239.544 C 506.549 239.736 506.563 239.913 506.58 240.075 C 506.608 240.435 506.627 240.821 506.634 241.235 C 506.641 241.649 506.641 242.063 506.634 242.477 C 506.627 242.891 506.622 243.292 506.622 243.678 C 506.622 244.064 506.636 244.411 506.666 244.72 C 507.175 244.72 507.628 244.722 508.027 244.728 C 508.425 244.735 508.878 244.705 509.387 244.638 C 509.359 244.239 509.347 243.775 509.354 243.247 C 509.361 242.721 509.373 242.173 509.387 241.606 C 509.401 241.039 509.415 240.465 509.431 239.885 C 509.446 239.305 509.446 238.753 509.431 238.233 C 509.56 238.14 509.703 238.069 509.856 238.022 C 510.008 237.977 510.161 237.953 510.313 237.953 C 510.466 237.953 510.606 237.966 510.738 237.992 C 510.866 238.02 510.977 238.052 511.064 238.093 C 511.078 238.106 511.092 238.112 511.108 238.112 C 511.122 238.112 511.136 238.119 511.15 238.132 C 511.265 238.211 511.357 238.326 511.422 238.473 C 511.488 238.619 511.54 238.785 511.575 238.973 C 511.61 239.16 511.636 239.35 511.652 239.544 C 511.666 239.736 511.68 239.913 511.694 240.075 C 511.725 240.435 511.741 240.821 511.748 241.235 C 511.755 241.649 511.755 242.063 511.748 242.477 C 511.741 242.891 511.739 243.292 511.739 243.678 C 511.739 244.064 511.753 244.411 511.781 244.72 C 512.29 244.72 512.743 244.722 513.144 244.728 C 513.542 244.735 513.995 244.705 514.504 244.638 C 514.473 244.185 514.466 243.659 514.483 243.057 C 514.497 242.456 514.511 241.832 514.525 241.185 C 514.539 240.538 514.551 239.898 514.557 239.264 C 514.565 238.63 514.557 238.046 514.536 237.511 C 514.515 236.978 514.464 236.521 514.384 236.139 C 514.304 235.76 514.192 235.51 514.046 235.389 C 513.742 235.15 513.401 234.981 513.024 234.889 C 512.646 234.796 512.257 234.755 511.858 234.77 C 511.46 234.783 511.07 234.85 510.693 234.968 C 510.315 235.089 509.975 235.249 509.671 235.449 C 509.598 235.503 509.509 235.553 509.408 235.6 C 509.307 235.646 509.22 235.689 509.148 235.73 C 509.075 235.57 509.002 235.456 508.929 235.389 C 508.625 235.15 508.285 234.981 507.907 234.889 C 507.53 234.796 507.143 234.755 506.742 234.77 C 506.343 234.783 505.956 234.85 505.578 234.968 C 505.201 235.089 504.858 235.249 504.554 235.449 C 504.481 235.503 504.392 235.555 504.282 235.609 C 504.174 235.663 504.082 235.71 504.009 235.749 Z M 519.836 247.808 C 519.851 247.542 519.862 247.338 519.869 247.197 C 519.876 247.057 519.883 246.932 519.89 246.818 C 519.897 246.704 519.904 246.585 519.911 246.458 C 519.919 246.331 519.923 246.152 519.923 245.916 C 519.923 245.684 519.923 245.373 519.923 244.985 C 519.923 244.599 519.897 244.806 519.883 244.178 C 519.911 244.297 520.071 244.405 520.362 244.498 C 520.652 244.59 521.009 244.655 521.429 244.69 C 521.848 244.722 522.296 244.722 522.768 244.69 C 523.239 244.655 523.67 244.571 524.062 244.439 C 524.381 244.331 524.653 244.148 524.878 243.887 C 525.103 243.626 525.284 243.314 525.422 242.947 C 525.56 242.581 525.664 242.177 525.727 241.735 C 525.793 241.295 525.826 240.843 525.826 240.375 C 525.797 239.708 525.746 239.046 525.673 238.393 C 525.6 237.739 525.446 237.148 525.204 236.62 C 524.965 236.094 524.606 235.661 524.128 235.32 C 523.649 234.979 522.995 234.783 522.167 234.729 C 521.762 234.675 521.377 234.705 521.013 234.82 C 520.65 234.934 520.362 235.191 520.144 235.59 C 520.099 235.669 520.059 235.693 520.024 235.661 C 519.989 235.626 519.956 235.576 519.925 235.51 C 519.925 235.363 519.923 235.249 519.916 235.169 C 519.909 235.089 519.904 234.981 519.904 234.85 C 519.904 234.783 519.897 234.735 519.883 234.71 C 519.447 234.656 518.962 234.638 518.425 234.658 C 517.888 234.677 517.393 234.688 516.943 234.688 C 516.914 235.65 516.903 236.648 516.91 237.681 C 516.917 238.716 516.933 239.771 516.954 240.844 C 516.975 241.921 517.001 243.012 517.029 244.118 C 517.06 245.226 517.093 245.621 517.093 246.727 L 517.093 248.049 C 517.325 248.09 517.601 248.112 517.92 248.118 C 518.239 248.125 518.54 248.125 518.823 248.118 C 519.107 248.112 519.346 248.099 519.541 248.08 C 519.738 248.06 519.836 248.043 519.836 248.03 L 519.836 247.808 Z M 523.192 240.976 C 523.119 241.442 522.904 241.795 522.55 242.037 C 522.193 242.276 521.717 242.397 521.124 242.397 C 520.819 242.397 520.575 242.374 520.394 242.326 C 520.214 242.281 520.078 242.177 519.991 242.016 C 519.904 241.856 519.848 241.625 519.827 241.326 C 519.806 241.026 519.794 240.614 519.794 240.094 C 519.794 239.68 519.806 239.294 519.827 238.934 C 519.848 238.574 519.914 238.266 520.024 238.013 C 520.134 237.759 520.289 237.558 520.493 237.412 C 520.697 237.265 520.985 237.191 521.363 237.191 C 521.668 237.191 521.945 237.265 522.191 237.412 C 522.437 237.558 522.648 237.755 522.822 238.002 C 522.995 238.251 523.127 238.531 523.213 238.844 C 523.3 239.156 523.344 239.48 523.344 239.814 C 523.344 240.001 523.338 240.193 523.321 240.394 C 523.307 240.594 523.265 240.788 523.192 240.976 Z M 530.616 239.654 C 530.762 239.68 530.994 239.699 531.313 239.715 C 531.634 239.727 531.993 239.734 532.392 239.734 C 532.791 239.734 533.208 239.727 533.644 239.715 C 534.078 239.699 534.488 239.68 534.873 239.654 C 535.257 239.626 535.59 239.6 535.874 239.574 C 536.158 239.546 536.35 239.521 536.451 239.495 C 536.496 238.934 536.496 238.38 536.451 237.832 C 536.409 237.284 536.282 236.784 536.071 236.331 C 535.86 235.876 535.55 235.49 535.145 235.169 C 534.739 234.848 534.202 234.634 533.534 234.529 C 533.011 234.41 532.474 234.356 531.923 234.369 C 531.372 234.382 530.851 234.459 530.356 234.599 C 529.862 234.74 529.421 234.945 529.029 235.219 C 528.637 235.492 528.347 235.824 528.157 236.211 C 527.983 236.65 527.87 237.101 527.819 237.562 C 527.77 238.022 527.723 238.498 527.678 238.992 C 527.65 239.54 527.664 240.088 527.723 240.635 C 527.781 241.181 527.889 241.698 528.049 242.186 C 528.208 242.673 528.419 243.12 528.679 243.527 C 528.94 243.935 529.268 244.265 529.66 244.519 C 530.009 244.707 530.387 244.825 530.792 244.879 C 531.198 244.879 531.646 244.892 532.131 244.918 C 532.617 244.946 533.093 244.946 533.557 244.918 C 534.022 244.892 534.448 244.812 534.84 244.679 C 535.232 244.545 535.553 244.319 535.799 243.997 C 535.9 243.917 535.984 243.775 536.05 243.568 C 536.113 243.361 536.167 243.113 536.212 242.827 C 536.256 242.54 536.291 242.231 536.322 241.897 C 536.35 241.563 536.378 241.222 536.409 240.875 C 536.249 240.834 536.045 240.812 535.799 240.806 C 535.553 240.799 535.295 240.802 535.025 240.815 C 534.758 240.83 534.5 240.838 534.254 240.844 C 534.007 240.851 533.811 240.849 533.665 240.836 C 533.696 241.382 533.604 241.791 533.393 242.065 C 533.182 242.339 532.924 242.503 532.621 242.557 C 532.317 242.611 532.005 242.563 531.684 242.416 C 531.365 242.27 531.118 242.044 530.945 241.735 C 530.786 241.496 530.694 241.248 530.673 240.996 C 530.652 240.741 530.633 240.413 530.616 240.014 L 530.616 239.654 Z M 533.253 236.551 C 533.513 236.67 533.719 236.851 533.871 237.09 C 534.024 237.332 534.101 237.586 534.101 237.852 C 534.101 237.959 534.101 238.03 534.101 238.063 C 534.101 238.095 534.062 238.117 533.982 238.123 C 533.902 238.13 533.768 238.125 533.578 238.112 C 533.388 238.099 533.107 238.093 532.729 238.093 C 532.178 238.093 531.761 238.095 531.477 238.102 C 531.193 238.108 530.987 238.102 530.858 238.082 C 530.727 238.063 530.656 238.022 530.649 237.961 C 530.642 237.903 530.654 237.8 530.682 237.651 C 530.713 237.478 530.76 237.312 530.825 237.151 C 530.888 236.991 530.987 236.851 531.118 236.73 C 531.247 236.611 531.423 236.517 531.641 236.45 C 531.859 236.383 532.141 236.351 532.49 236.351 C 532.65 236.351 532.788 236.368 532.903 236.4 C 533.018 236.433 533.135 236.484 533.253 236.551 Z M 541.589 235.369 C 541.589 235.277 541.584 235.21 541.577 235.169 C 541.57 235.128 541.566 235.091 541.566 235.059 C 541.566 235.026 541.566 234.983 541.566 234.929 C 541.566 234.876 541.566 234.796 541.566 234.688 C 541.566 234.662 541.504 234.645 541.38 234.638 C 541.259 234.632 541.113 234.636 540.946 234.649 C 540.78 234.662 540.621 234.675 540.468 234.688 C 540.316 234.703 540.21 234.71 540.152 234.71 C 539.978 234.723 539.833 234.733 539.715 234.74 C 539.601 234.746 539.49 234.748 539.39 234.748 C 539.288 234.748 539.178 234.746 539.063 234.74 C 538.946 234.733 538.801 234.723 538.627 234.71 C 538.569 236.471 538.559 238.173 538.594 239.814 C 538.63 241.455 538.648 243.098 538.648 244.739 C 538.998 244.711 539.298 244.705 539.554 244.72 C 539.807 244.733 540.041 244.741 540.259 244.748 C 540.478 244.754 540.689 244.752 540.893 244.739 C 541.097 244.726 541.319 244.685 541.566 244.618 L 541.566 244.539 C 541.566 244.045 541.563 243.581 541.556 243.148 C 541.549 242.714 541.544 242.287 541.544 241.867 C 541.544 241.446 541.538 241.028 541.523 240.614 C 541.509 240.202 541.495 239.762 541.479 239.294 C 541.465 238.921 541.523 238.632 541.653 238.432 C 541.784 238.231 541.969 238.084 542.208 237.992 C 542.447 237.899 542.731 237.852 543.057 237.852 C 543.383 237.852 543.744 237.871 544.136 237.912 C 544.15 237.912 544.248 237.925 544.429 237.953 C 544.61 237.979 544.788 238.011 544.963 238.052 C 545.036 238.08 545.111 238.104 545.191 238.123 C 545.271 238.143 545.348 238.164 545.421 238.192 L 545.616 238.253 C 545.602 238.052 545.594 237.839 545.594 237.612 C 545.594 237.386 545.594 237.135 545.594 236.862 C 545.594 236.588 545.599 236.277 545.606 235.93 C 545.613 235.583 545.616 235.184 545.616 234.729 C 545.616 234.716 545.51 234.705 545.301 234.699 C 545.09 234.692 544.832 234.695 544.527 234.71 C 544.223 234.723 543.897 234.753 543.547 234.798 C 543.198 234.845 542.886 234.91 542.611 234.99 C 542.407 235.057 542.201 235.13 541.99 235.21 C 541.781 235.29 541.648 235.341 541.589 235.369 Z M 490.95 227.771 C 490.981 228.365 490.997 228.924 490.997 229.448 C 490.997 230.459 490.94 231.366 490.827 232.168 C 490.295 232.063 489.876 232.01 489.57 232.01 L 488.431 231.985 C 488.012 231.985 487.802 232.011 487.802 232.063 C 487.769 232.308 487.753 232.823 487.753 233.608 C 487.753 235.143 487.809 239.277 487.922 246.009 C 487.455 246.097 486.906 246.141 486.277 246.141 L 485.575 246.141 C 484.769 246.141 484.026 246.202 483.348 246.324 C 483.3 246.236 483.263 246.057 483.239 245.786 C 483.215 245.516 483.21 245.267 483.226 245.042 L 483.226 243.76 L 483.252 241.403 C 483.252 238.23 483.187 235.134 483.056 232.114 C 482.879 232.028 482.63 231.985 482.308 231.985 L 481.338 232.01 C 480.79 232.01 480.395 231.967 480.151 231.88 C 480.103 231.775 480.063 231.487 480.032 231.018 C 479.999 230.546 479.982 230.014 479.982 229.42 C 479.982 228.548 479.991 227.92 480.008 227.537 L 481.049 227.537 L 481.992 227.512 L 483.348 227.512 L 484.751 227.484 C 487.156 227.484 489.117 227.579 490.634 227.771 L 490.95 227.771 Z M 547.025 235.813 C 546.98 235.967 546.911 236.172 546.819 236.43 C 546.729 236.689 546.676 236.895 546.659 237.049 C 546.613 237.316 546.583 237.571 546.568 237.815 C 546.553 238.061 546.546 238.31 546.546 238.561 C 546.592 239.022 546.604 239.532 546.581 240.091 C 546.558 240.652 546.561 241.208 546.59 241.761 C 546.622 242.313 546.713 242.84 546.866 243.344 C 547.018 243.848 547.299 244.268 547.709 244.602 C 548.241 245.092 548.896 245.4 549.672 245.527 C 550.098 245.527 550.57 245.544 551.086 245.579 C 551.603 245.613 552.106 245.613 552.592 245.579 C 553.079 245.544 553.531 245.457 553.949 245.317 C 554.368 245.176 554.708 244.938 554.966 244.602 C 555.117 244.464 555.234 244.206 555.318 243.827 C 555.402 243.449 555.47 243.023 555.524 242.548 C 555.577 242.072 555.614 241.575 555.637 241.059 C 555.66 240.54 555.68 240.079 555.696 239.673 C 555.68 239.211 555.665 238.759 555.65 238.319 C 555.635 237.88 555.597 237.474 555.537 237.104 C 555.474 236.733 555.383 236.407 555.261 236.127 C 555.14 235.847 554.973 235.644 554.76 235.519 C 554.44 235.239 554.06 235.025 553.619 234.877 C 553.179 234.731 552.714 234.644 552.226 234.615 C 551.908 234.588 551.608 234.585 551.327 234.606 C 551.045 234.627 550.751 234.623 550.446 234.595 C 550.083 234.595 549.722 234.616 549.363 234.658 C 549.005 234.7 548.671 234.773 548.36 234.877 C 548.049 234.983 547.775 235.112 547.539 235.266 C 547.303 235.42 547.132 235.602 547.025 235.813 Z M 549.876 238.288 C 550.075 238.065 550.333 237.911 550.653 237.827 C 551.246 237.7 551.725 237.749 552.091 237.974 C 552.456 238.197 552.677 238.553 552.752 239.043 C 552.844 239.449 552.87 239.88 552.831 240.333 C 552.793 240.788 552.744 241.239 552.683 241.687 C 552.591 242.036 552.417 242.267 552.16 242.378 C 551.961 242.476 551.71 242.543 551.405 242.58 C 551.102 242.614 550.81 242.6 550.528 242.537 C 550.246 242.473 550.006 242.354 549.807 242.18 C 549.611 242.005 549.52 241.757 549.535 241.436 C 549.566 240.946 549.581 240.481 549.581 240.039 C 549.581 239.599 549.612 239.156 549.672 238.708 C 549.718 238.484 549.786 238.343 549.876 238.288 Z" style="fill: rgb(183, 36, 36); fill-rule: evenodd;">
          <title>Tempero</title>
        </path>
      </g>
      <g transform="matrix(0.5814, 0, 0, 0.540633, 350.292603, 210.713165)">
        <title>pan</title>
        <path d="M 298.661 105.114 C 296.7 106.585 293.784 107.656 291.981 107.93 C 291.393 108.02 291.062 108.678 291.218 109.255 C 291.372 109.831 291.954 110.117 292.542 110.017 C 294.551 109.674 297.68 108.251 299.773 106.964 C 300.282 106.652 300.45 105.994 300.143 105.483 C 299.835 104.972 299.139 104.756 298.661 105.114 Z M 309.048 94.236 L 309.814 90.934 C 309.821 90.905 309.827 90.874 309.831 90.844 C 309.854 90.686 310.314 86.962 304.475 85.568 C 302.252 85.038 300.522 85.204 299.333 86.065 C 298.101 86.956 297.961 88.233 297.949 88.374 C 297.947 88.407 297.945 88.439 297.946 88.471 L 297.973 91.574 C 296.013 91.295 288.702 91.065 288.576 91.065 C 288.155 91.065 282.968 91.08 277.917 91.722 C 276.982 90.984 275.626 90.263 273.646 89.79 C 271.642 89.311 269.993 89.502 268.746 90.357 C 267.157 91.447 266.884 93.163 266.858 93.355 C 266.838 93.504 266.849 93.659 266.895 93.803 L 268.207 98.127 C 269.349 107.046 278.046 114.005 288.576 114.005 C 299.88 114.005 309.076 105.985 309.076 96.128 C 309.076 96.117 309.07 96.109 309.07 96.096 C 309.07 96.079 309.076 96.064 309.076 96.046 C 309.076 95.611 308.914 95.215 308.633 94.851 C 308.833 94.706 308.989 94.497 309.048 94.236 Z M 300.065 88.528 C 300.086 88.435 300.19 88.062 300.577 87.781 C 301.222 87.313 302.433 87.256 303.982 87.629 C 307.666 88.507 307.741 90.304 307.736 90.525 L 307.012 93.639 C 305.315 92.791 302.765 92.219 300.091 91.838 L 300.065 88.528 Z M 288.575 93.184 C 289.104 93.184 291.751 93.246 292.54 93.265 C 301.19 93.625 306.26 95.116 306.926 96.047 C 306.163 97.113 299.638 98.911 288.575 98.911 C 285.284 98.911 282.405 98.749 279.95 98.498 C 279.95 98.498 279.943 94.61 279.931 94.544 C 279.923 94.5 279.847 94.142 279.574 93.632 C 282.107 93.36 285.119 93.184 288.575 93.184 Z M 277.229 93.936 C 277.628 94.378 277.784 94.742 277.832 94.881 L 277.832 98.246 C 273.328 97.625 270.691 96.699 270.225 96.046 C 270.669 95.424 273.095 94.555 277.229 93.936 Z M 269.944 92.107 C 270.677 91.603 271.756 91.517 273.153 91.851 C 273.673 91.975 274.129 92.116 274.541 92.268 C 272.322 92.716 270.385 93.337 269.224 94.186 L 269.002 93.454 C 269.091 93.147 269.339 92.52 269.944 92.107 Z M 288.576 111.89 C 280.189 111.89 273.102 107.046 270.903 100.455 C 270.961 100.296 270.584 98.668 270.584 98.668 C 272.442 99.478 275.112 100.011 277.833 100.361 L 277.833 101.664 C 277.833 102.249 278.307 102.723 278.892 102.723 C 279.477 102.723 279.951 102.249 279.951 101.664 L 279.951 100.6 C 284.276 101.018 288.212 101.028 288.576 101.028 C 289.235 101.028 301.494 100.993 306.733 98.593 C 305.346 106.116 297.733 111.89 288.576 111.89 Z" style="fill: rgb(101, 57, 37); stroke-width: 0.891682px;">
          <title>pan</title>
        </path>
        <path d="M 293.671 85.337 C 293.153 85.605 292.947 86.245 293.215 86.765 C 293.403 87.13 293.774 87.339 294.158 87.339 C 294.322 87.339 294.487 87.3 294.643 87.22 C 295.904 86.57 296.635 84.973 296.704 82.721 C 296.784 80.156 295.94 77.007 294.176 75.956 C 293.674 75.654 293.024 75.82 292.724 76.323 C 292.424 76.826 292.588 77.474 293.091 77.774 C 293.855 78.231 294.659 80.347 294.586 82.657 C 294.54 84.208 294.092 85.121 293.671 85.337 Z" style="fill: rgb(148, 163, 144); stroke-width: 0.891239px;">
          <title>smoke_green</title>
        </path>
        <path d="M 286.527 79.935 C 286.005 79.67 285.367 79.88 285.104 80.402 C 284.354 81.885 282.073 86.402 284.165 89.11 C 284.373 89.381 284.687 89.522 285.003 89.522 C 285.23 89.522 285.456 89.45 285.65 89.302 C 286.113 88.943 286.199 88.279 285.842 87.816 C 285.258 87.062 284.988 85.33 286.996 81.357 C 287.258 80.836 287.05 80.197 286.527 79.935 Z" style="fill: rgb(181, 163, 163); stroke-width: 0.891239px;">
          <title>smoke_brown</title>
        </path>
        <path d="M 292.261 82.801 C 291.561 82.444 290.755 82.753 290.353 83.425 C 288.62 86.324 286.293 91.466 289.095 95.094 C 289.376 95.457 289.795 95.647 290.219 95.647 C 290.522 95.647 290.914 95.339 290.825 95.024 C 290.596 94.217 290.798 94.675 290.494 94.079 C 289.721 92.563 288.763 87.549 292.237 84.507 C 292.822 83.994 292.962 83.152 292.261 82.801 Z" style="fill: rgb(221, 176, 176); transform-box: fill-box; transform-origin: 50% 50%; stroke-width: 0.891239px;">
          <title>smoke_red</title>
        </path>
      </g>
    </g>
  </svg>